<svg aria-hidden="true" style="position: absolute; width: 0; height: 0; overflow: hidden;" version="1.1" xmlns="http://www.w3.org/2000/svg" xmlns:xlink="http://www.w3.org/1999/xlink">
<defs>
<symbol id="icon-arrow" >
<path d="M4.541 31.228c0 0.358 0.29 0.649 0.649 0.649s0.649-0.29 0.649-0.649h-1.297zM5.648 0.499c-0.253-0.253-0.664-0.253-0.917 0l-4.128 4.128c-0.253 0.253-0.253 0.664 0 0.917s0.664 0.253 0.917 0l3.669-3.669 3.669 3.669c0.253 0.253 0.664 0.253 0.917 0s0.253-0.664 0-0.917l-4.128-4.128zM5.838 31.228v-30.27h-1.297v30.27h1.297z"></path>
</symbol>
<symbol id="icon-star" viewBox="0 0 32 32">
<path d="M7.497 14.793c-0.766-0.969-0.158-2.403 1.072-2.525 0.912-0.091 1.551-0.943 1.382-1.844-0.228-1.214 0.977-2.201 2.122-1.738 0.85 0.344 1.811-0.114 2.080-0.991 0.363-1.181 1.888-1.495 2.687-0.552 0.593 0.699 1.657 0.741 2.302 0.090 0.87-0.877 2.366-0.446 2.636 0.76 0.2 0.895 1.123 1.426 1.997 1.149 1.178-0.373 2.302 0.704 1.981 1.897-0.239 0.885 0.332 1.784 1.234 1.946 1.216 0.218 1.711 1.694 0.872 2.601-0.623 0.673-0.535 1.734 0.189 2.297 0.976 0.758 0.728 2.295-0.436 2.708-0.864 0.306-1.28 1.287-0.9 2.121 0.512 1.125-0.422 2.371-1.645 2.195-0.907-0.13-1.731 0.545-1.783 1.46-0.069 1.234-1.475 1.903-2.477 1.179-0.743-0.537-1.786-0.322-2.257 0.464-0.635 1.060-2.191 1-2.741-0.107-0.408-0.821-1.432-1.116-2.214-0.638-1.055 0.644-2.404-0.133-2.377-1.368 0.020-0.916-0.749-1.653-1.664-1.594-1.233 0.080-2.067-1.235-1.469-2.316 0.444-0.802 0.105-1.812-0.733-2.185-1.129-0.502-1.256-2.054-0.224-2.734 0.766-0.504 0.935-1.556 0.367-2.275z"></path>
</symbol>
<symbol id="icon-phone" viewBox="0 0 32 32">
<path d="M22 20c-2 2-2 4-4 4s-4-2-6-4-4-4-4-6 2-2 4-4-4-8-6-8-6 6-6 6c0 4 4.109 12.109 8 16s12 8 16 8c0 0 6-4 6-6s-6-8-8-6z"></path>
</symbol>
<symbol id="icon-instagram" viewBox="0 0 32 32">
<path d="M16 2.881c4.275 0 4.781 0.019 6.462 0.094 1.563 0.069 2.406 0.331 2.969 0.55 0.744 0.288 1.281 0.638 1.837 1.194 0.563 0.563 0.906 1.094 1.2 1.838 0.219 0.563 0.481 1.412 0.55 2.969 0.075 1.688 0.094 2.194 0.094 6.463s-0.019 4.781-0.094 6.463c-0.069 1.563-0.331 2.406-0.55 2.969-0.288 0.744-0.637 1.281-1.194 1.837-0.563 0.563-1.094 0.906-1.837 1.2-0.563 0.219-1.413 0.481-2.969 0.55-1.688 0.075-2.194 0.094-6.463 0.094s-4.781-0.019-6.463-0.094c-1.563-0.069-2.406-0.331-2.969-0.55-0.744-0.288-1.281-0.637-1.838-1.194-0.563-0.563-0.906-1.094-1.2-1.837-0.219-0.563-0.481-1.413-0.55-2.969-0.075-1.688-0.094-2.194-0.094-6.463s0.019-4.781 0.094-6.463c0.069-1.563 0.331-2.406 0.55-2.969 0.288-0.744 0.638-1.281 1.194-1.838 0.563-0.563 1.094-0.906 1.838-1.2 0.563-0.219 1.412-0.481 2.969-0.55 1.681-0.075 2.188-0.094 6.463-0.094zM16 0c-4.344 0-4.887 0.019-6.594 0.094-1.7 0.075-2.869 0.35-3.881 0.744-1.056 0.412-1.95 0.956-2.837 1.85-0.894 0.888-1.438 1.781-1.85 2.831-0.394 1.019-0.669 2.181-0.744 3.881-0.075 1.713-0.094 2.256-0.094 6.6s0.019 4.887 0.094 6.594c0.075 1.7 0.35 2.869 0.744 3.881 0.413 1.056 0.956 1.95 1.85 2.837 0.887 0.887 1.781 1.438 2.831 1.844 1.019 0.394 2.181 0.669 3.881 0.744 1.706 0.075 2.25 0.094 6.594 0.094s4.888-0.019 6.594-0.094c1.7-0.075 2.869-0.35 3.881-0.744 1.050-0.406 1.944-0.956 2.831-1.844s1.438-1.781 1.844-2.831c0.394-1.019 0.669-2.181 0.744-3.881 0.075-1.706 0.094-2.25 0.094-6.594s-0.019-4.887-0.094-6.594c-0.075-1.7-0.35-2.869-0.744-3.881-0.394-1.063-0.938-1.956-1.831-2.844-0.887-0.887-1.781-1.438-2.831-1.844-1.019-0.394-2.181-0.669-3.881-0.744-1.712-0.081-2.256-0.1-6.6-0.1v0z"></path>
<path d="M16 7.781c-4.537 0-8.219 3.681-8.219 8.219s3.681 8.219 8.219 8.219 8.219-3.681 8.219-8.219c0-4.537-3.681-8.219-8.219-8.219zM16 21.331c-2.944 0-5.331-2.387-5.331-5.331s2.387-5.331 5.331-5.331c2.944 0 5.331 2.387 5.331 5.331s-2.387 5.331-5.331 5.331z"></path>
<path d="M26.462 7.456c0 1.060-0.859 1.919-1.919 1.919s-1.919-0.859-1.919-1.919c0-1.060 0.859-1.919 1.919-1.919s1.919 0.859 1.919 1.919z"></path>
</symbol>
</defs>
</svg>
